<?xml version="1.0" standalone="no"?>
<!DOCTYPE svg PUBLIC "-//W3C//DTD SVG 20010904//EN"
 "http://www.w3.org/TR/2001/REC-SVG-20010904/DTD/svg10.dtd">
<svg version="1.0" xmlns="http://www.w3.org/2000/svg"
 width="700.000000pt" height="700.000000pt" viewBox="0 0 700.000000 700.000000"
 preserveAspectRatio="xMidYMid meet">
<metadata>
Created by potrace 1.11, written by Peter Selinger 2001-2013
</metadata>
<g transform="translate(0.000000,700.000000) scale(0.100000,-0.100000)"
fill="#000000" stroke="none">
<path d="M0 3500 l0 -3500 3500 0 3500 0 0 3500 0 3500 -3500 0 -3500 0 0
-3500z m4259 457 c327 -870 600 -1593 607 -1607 9 -19 14 -21 18 -10 3 8 275
730 605 1605 l599 1590 270 3 270 2 -54 -142 c-30 -79 -358 -937 -727 -1908
l-673 -1765 -296 -3 -296 -2 -20 52 c-11 29 -338 885 -726 1901 -388 1017
-706 1853 -706 1858 0 5 115 9 268 9 l267 0 594 -1583z m-1582 1561 c9 -12
1440 -3761 1451 -3801 4 -16 -12 -17 -264 -15 l-268 3 -173 485 c-95 267 -173
486 -173 488 0 1 -388 2 -863 2 l-863 0 -173 -490 -174 -490 -273 0 -274 0 19
48 c10 26 339 887 731 1915 l713 1867 287 0 c218 0 290 -3 297 -12z"/>
<path d="M2367 4970 c-10 -25 -167 -452 -351 -950 l-334 -905 349 -3 c191 -1
507 -1 702 0 l354 3 -349 940 c-191 517 -349 944 -351 950 -2 5 -11 -10 -20
-35z"/>
</g>
</svg>
